<?xml version="1.0" encoding="UTF-8" standalone="no"?>
<!-- Created with Inkscape (http://www.inkscape.org/) -->

<svg
   xmlns:dc="http://purl.org/dc/elements/1.1/"
   xmlns:cc="http://creativecommons.org/ns#"
   xmlns:rdf="http://www.w3.org/1999/02/22-rdf-syntax-ns#"
   xmlns:svg="http://www.w3.org/2000/svg"
   xmlns="http://www.w3.org/2000/svg"
   xmlns:sodipodi="http://sodipodi.sourceforge.net/DTD/sodipodi-0.dtd"
   xmlns:inkscape="http://www.inkscape.org/namespaces/inkscape"
   width="329.5705mm"
   height="332.02884mm"
   viewBox="0 0 1167.7695 1176.4802"
   id="svg2"
   version="1.1"
   inkscape:version="0.91 r13725"
   sodipodi:docname="IUMS.svg"
   inkscape:export-filename="D:\Dropbox\Other Logos\University\Iran University of Medical Sciences\IUMS.png"
   inkscape:export-xdpi="90"
   inkscape:export-ydpi="90">
  <defs
     id="defs4" />
  <sodipodi:namedview
     id="base"
     pagecolor="#ffffff"
     bordercolor="#666666"
     borderopacity="1.0"
     inkscape:pageopacity="0.0"
     inkscape:pageshadow="2"
     inkscape:zoom="0.175"
     inkscape:cx="-400.25581"
     inkscape:cy="1052.1083"
     inkscape:document-units="px"
     inkscape:current-layer="layer1"
     showgrid="false"
     inkscape:window-width="1366"
     inkscape:window-height="705"
     inkscape:window-x="-8"
     inkscape:window-y="-8"
     inkscape:window-maximized="1"
     fit-margin-top="5"
     fit-margin-left="5"
     fit-margin-right="5"
     fit-margin-bottom="5"
     showguides="false" />
  <metadata
     id="metadata7">
    <rdf:RDF>
      <cc:Work
         rdf:about="">
        <dc:format>image/svg+xml</dc:format>
        <dc:type
           rdf:resource="http://purl.org/dc/dcmitype/StillImage" />
        <dc:title></dc:title>
      </cc:Work>
    </rdf:RDF>
  </metadata>
  <g
     inkscape:label="Layer 1"
     inkscape:groupmode="layer"
     id="layer1"
     transform="translate(236.26978,46.372902)">
    <g
       id="g4235"
       transform="translate(-46.973921,0)">
      <path
         id="path3409"
         d="m 573.76758,577.58984 -10.40039,2 12.14258,0 -1.74219,-2 z m -52.00196,10 -0.52734,0.10157 0,7.89843 68.20508,0 -6.9668,-8 -60.71094,0 z m -0.52734,16 0,8 82.14063,0 -6.9668,-8 -75.17383,0 z m 0,16 0,8 96.07617,0 -6.96875,-8 -89.10742,0 z m 0,16 0,8 106.36914,0 0.70703,-3.36914 -4.0332,-4.63086 -103.04297,0 z m 0,16 0,8 103.00781,0 1.67969,-8 -104.6875,0 z m 0,16 0,8 99.64649,0 1.67968,-8 -101.32617,0 z m 0,16 0,8 96.28516,0 1.67968,-8 -97.96484,0 z m 0,16 0,8 92.92188,0 1.68164,-8 -94.60352,0 z m 0,16 0,8 89.56055,0 1.68164,-8 -91.24219,0 z m 0,16 0,8 86.19922,0 1.68164,-8 -87.88086,0 z m 0,16 0,8 82.83789,0 1.68164,-8 -84.51953,0 z m 0,16 0,8 68.71875,0 9.39063,-8 -78.10938,0 z m 0,16 0,8 49.9375,0 9.39063,-8 -59.32813,0 z m 0,16 0,8 31.1543,0 9.39062,-8 -40.54492,0 z m 0,16 0,8 12.3711,0 9.39257,-8 -21.76367,0 z m 0,16 0,2.53907 2.98047,-2.53907 -2.98047,0 z"
         style="fill:#e0797c;fill-opacity:1;fill-rule:evenodd;stroke:none;stroke-width:1px;stroke-linecap:butt;stroke-linejoin:miter;stroke-opacity:1"
         inkscape:connector-curvature="0" />
      <path
         id="rect3347"
         d="m 342.33789,203.58984 -8,8 29.89453,0 -8,-8 -13.89453,0 z m 148.57227,0 -8,8 29.89453,0 -8,-8 -13.89453,0 z m -164.57227,16 -8,8 61.89453,0 -8,-8 -45.89453,0 z m 148.57227,0 -8,8 61.89453,0 -8,-8 -45.89453,0 z m -164.57227,16 -8,8 93.89453,0 -8,-8 -77.89453,0 z m 148.57227,0 -8,8 93.89453,0 -8,-8 -77.89453,0 z m -164.57227,16 -8,8 125.89453,0 -8,-8 -109.89453,0 z m 148.57227,0 -8,8 125.89453,0 -8,-8 -109.89453,0 z m -161.25977,16 8,8 119.26953,0 8,-8 -135.26953,0 z m 148.57227,0 8,8 119.26953,0 8,-8 -135.26953,0 z m -6.65039,3.33789 -4.66211,4.66211 9.32422,0 -4.66211,-4.66211 z m -125.92188,12.66211 8,8 87.26953,0 8,-8 -103.26953,0 z m 113.25977,0 -8,8 41.32422,0 -8,-8 -25.32422,0 z m 35.3125,0 8,8 87.26953,0 8,-8 -103.26953,0 z m -132.57227,16 8,8 55.26953,0 8,-8 -71.26953,0 z m 81.25977,0 -8,8 73.32422,0 -8,-8 -57.32422,0 z m 67.3125,0 8,8 55.26953,0 8,-8 -71.26953,0 z m -132.57227,16 8,8 23.26953,0 8,-8 -39.26953,0 z m 49.25977,0 -8,8 105.32422,0 -8,-8 -89.32422,0 z m 99.3125,0 8,8 23.26953,0 8,-8 -39.26953,0 z m -132.57227,16 3.63477,3.63477 3.63476,-3.63477 -7.26953,0 z m 17.25977,0 -8,8 137.32422,0 -8,-8 -121.32422,0 z m 131.3125,0 3.63476,3.63477 3.63477,-3.63477 -7.26953,0 z m -132.57032,16 8,8 107.83985,0 8,-8 -123.83985,0 z m 16,16 8,8 75.83985,0 8,-8 -91.83985,0 z m 16,16 8,8 43.83985,0 8,-8 -59.83985,0 z m 16,16 8,8 11.83985,0 8,-8 -27.83985,0 z"
         style="fill:#e0797c;fill-opacity:1;fill-rule:evenodd;stroke:none;stroke-width:1.0888046px;stroke-linecap:butt;stroke-linejoin:miter;stroke-opacity:1"
         inkscape:connector-curvature="0" />
      <path
         id="path3380"
         d="m 344.29102,191.64844 -138.58204,0 L 275,260.93945 344.29102,191.64844 Z"
         style="fill:#04fefd;fill-opacity:1;fill-rule:evenodd;stroke:none;stroke-width:1.0888046px;stroke-linecap:butt;stroke-linejoin:miter;stroke-opacity:1"
         inkscape:connector-curvature="0" />
      <path
         id="path3377"
         d="m 492.86328,191.64844 -138.58203,0 69.29102,69.29101 69.29101,-69.29101 z"
         style="fill:#04fefd;fill-opacity:1;fill-rule:evenodd;stroke:none;stroke-width:1.0888046px;stroke-linecap:butt;stroke-linejoin:miter;stroke-opacity:1"
         inkscape:connector-curvature="0" />
      <path
         id="path3374"
         d="m 641.43359,191.64844 -138.58203,0 69.29102,69.29101 69.29101,-69.29101 z"
         style="fill:#04fefd;fill-opacity:1;fill-rule:evenodd;stroke:none;stroke-width:1.0888046px;stroke-linecap:butt;stroke-linejoin:miter;stroke-opacity:1"
         inkscape:connector-curvature="0" />
      <path
         sodipodi:nodetypes="ccccc"
         inkscape:connector-curvature="0"
         id="path3403"
         d="m 501.42857,355.21935 -70.71428,70.71428 0,430.3974 68.04761,-39.28731 z"
         style="fill:#04fefd;fill-opacity:1;fill-rule:evenodd;stroke:none;stroke-width:1px;stroke-linecap:butt;stroke-linejoin:miter;stroke-opacity:1" />
      <path
         sodipodi:nodetypes="cccc"
         inkscape:connector-curvature="0"
         id="path3405"
         d="m 521.42857,476.64792 0,114.28571 c 174.29725,109.7914 -2.85714,253.80952 -94.28571,280 206.34816,-18.54607 340.6047,-251.74724 94.28571,-394.28571 z"
         style="fill:#04fefd;fill-opacity:1;fill-rule:evenodd;stroke:none;stroke-width:1px;stroke-linecap:butt;stroke-linejoin:miter;stroke-opacity:1" />
      <path
         id="path3407"
         d="m 135.71484,177.77148 0,1.81836 1.59961,0 -1.59961,-1.81836 z m 0,9.81836 0,8 15.67774,0 -7.03906,-8 -8.63868,0 z m 0,16 0,8 29.75586,0 -7.03906,-8 -22.7168,0 z m 0,16 0,8 43.83399,0 -7.03906,-8 -36.79493,0 z m 0,16 0,8 57.91211,0 -7.03906,-8 -50.87305,0 z m 0,16 0,8 71.99024,0 -7.03906,-8 -64.95118,0 z m 0,16 0,8 86.06641,0 -7.03906,-8 -79.02735,0 z m 0,16 0,8 100.14454,0 -7.03907,-8 -93.10547,0 z m 0,16 0,8 114.22266,0 -7.03906,-8 -107.1836,0 z m 0,16 0,8 128.30078,0 -7.03906,-8 -121.26172,0 z m 0,16 0,8 142.37891,0 -7.03906,-8 -135.33985,0 z m 0,16 0,8 156.45704,0 -7.03907,-8 -149.41797,0 z m 0,16 0,8 170.53516,0 -7.03906,-8 -163.4961,0 z m 0,16 0,8 184.61328,0 -7.03906,-8 -177.57422,0 z m 0,16 0,8 198.68946,0 -7.03711,-8 -191.65235,0 z m 0,16 0,8 212.76758,0 -7.03906,-8 -205.72852,0 z m 0,16 0,8 226.84571,0 -7.03907,-8 -219.80664,0 z m 0,16 0,8 240.92383,0 -7.03906,-8 -233.88477,0 z m 0,16 0,8 255.00196,0 -7.03907,-8 -247.96289,0 z m 0,16 0,8 269.08008,0 -7.03906,-8 -262.04102,0 z m 0,16 0,8 274.28516,0 0,-8 -274.28516,0 z m 0,16 0,8 274.28516,0 0,-8 -274.28516,0 z m 0,16 0,8 274.28516,0 0,-8 -274.28516,0 z m 0,16 0,8 274.28516,0 0,-8 -274.28516,0 z m 0,16 0,8 274.28516,0 0,-8 -274.28516,0 z m 0,16 0,8 274.28516,0 0,-8 -274.28516,0 z m 0,16 0,8 274.28516,0 0,-8 -274.28516,0 z m 0,16 0,8 274.28516,0 0,-8 -274.28516,0 z m 0,16 0,8 274.28516,0 0,-8 -274.28516,0 z m 0,16 0,8 274.28516,0 0,-8 -274.28516,0 z m 0,16 0,8 274.28516,0 0,-8 -274.28516,0 z m 0,16 0,7.62891 c 0,0.12394 0.003,0.24722 0.004,0.37109 l 274.28125,0 0,-8 -274.28516,0 z m 0.33008,16 c 0.20871,2.68367 0.51791,5.35041 0.92188,8 l 273.0332,0 0,-8 -273.95508,0 z m 2.43555,16 c 0.61177,2.68675 1.32686,5.35286 2.13086,8 l 269.38867,0 0,-8 -271.51953,0 z m 4.88476,16 c 1.0238,2.68873 2.13071,5.35741 3.34375,8 l 263.29102,0 0,-8 -266.63477,0 z m 7.33789,16 c 1.45208,2.69445 3.00948,5.35976 4.64844,8 l 254.64844,0 0,-8 -259.29688,0 z m 9.94922,16 c 1.90235,2.69844 3.89774,5.36575 5.98438,8 l 243.36328,0 0,-8 -249.34766,0 z m 12.67969,16 c 2.38779,2.70467 4.86795,5.37249 7.4375,8 l 229.23047,0 0,-8 -236.66797,0 z m 15.66016,16 c 2.92727,2.7142 5.94842,5.38062 9.05469,8 l 211.95312,0 0,-8 -221.00781,0 z m 18.99609,16 c 3.5465,2.72417 7.17527,5.39575 10.89649,8 l 191.11523,0 0,-8 -202.01172,0 z m 22.90039,16 c 4.31172,2.74475 8.70777,5.41492 13.1875,8 l 165.92383,0 0,-8 -179.11133,0 z m 27.80664,16 c 5.35186,2.78173 10.78804,5.44951 16.29297,8 l 135.01172,0 0,-8 -151.30469,0 z m 34.71289,16 c 7.06012,2.865 14.19099,5.53284 21.35742,8 l 95.23438,0 0,-8 -116.5918,0 z m 47.27149,16 c 12.01896,3.28076 24.00507,5.96553 35.78515,8 l 33.53516,0 0,-8 -69.32031,0 z m 67.95312,11.95508 c 0.45461,0.0322 0.91381,0.0736 1.36719,0.10352 l 0,-0.10352 -1.36719,0 z"
         style="fill:#e0797c;fill-opacity:1;fill-rule:evenodd;stroke:none;stroke-width:1px;stroke-linecap:butt;stroke-linejoin:miter;stroke-opacity:1"
         inkscape:connector-curvature="0" />
      <path
         sodipodi:nodetypes="ssccsccccss"
         inkscape:connector-curvature="0"
         id="path3382"
         d="m 306.25195,-28.65625 c -56.61951,0.06673 -114.60304,29.25471106 -152.56445,103.25 -74.987899,146.16818 87.24103,287.35427 256.55636,430.2168 l 0,-91.875 C 342.31912,347.41312 262.16085,286.1658 190.91797,192.72266 170.25813,165.62493 181.48386,108.10626 205.06055,77.564453 294.318,-12.104845 390.5827,49.009481 391.81897,106.66819 393.05523,164.3269 412.23883,183.0007 435.90234,183 c 22.25872,-0.0148 40.79877,-16.61896 42.66602,-38.21094 0.57763,-2.53008 0.81452,-5.52741 1.25391,-12.42383 5.45001,-85.541734 -82.28579,-161.129058 -173.57032,-161.02148 z"
         style="fill:#04fefd;fill-opacity:1;fill-rule:evenodd;stroke:none;stroke-width:1px;stroke-linecap:butt;stroke-linejoin:miter;stroke-opacity:1" />
    </g>
    <g
       style="font-style:normal;font-weight:normal;font-size:98.62734985px;line-height:125%;font-family:sans-serif;letter-spacing:0px;word-spacing:0px;fill:#000000;fill-opacity:1;stroke:none;stroke-width:1px;stroke-linecap:butt;stroke-linejoin:miter;stroke-opacity:1"
       id="text4231">
      <path
         d="m 902.27343,996.04526 q 0.52973,-1.54105 2.1671,-0.52973 9.34263,5.63447 9.34263,15.12157 -0.38526,7.0792 -3.03395,12.3766 -2.60052,5.2973 -5.34552,8.0423 -4.71947,4.7677 -13.58053,7.0311 -1.10763,0.1926 -1.73368,0.1926 -0.86684,0 -0.86684,-0.4334 0,-0.7705 2.60052,-2.6487 5.20106,-3.6118 9.7279,-8.235 4.43052,-4.4305 4.43052,-5.8752 0,-3.7564 -8.235,-10.4503 -1.54105,-1.2521 -0.96315,-3.0339 2.1671,-4.1898 5.49,-11.55794 z"
         style="font-style:normal;font-variant:normal;font-weight:normal;font-stretch:normal;font-family:IranNastaliq;-inkscape-font-specification:IranNastaliq"
         id="path4247" />
      <path
         d="m 884.88856,987.85842 q -0.19263,5.24921 -0.28895,9.43895 -0.0482,4.14153 -0.38526,7.03103 -0.5779,6.2124 -2.4079,11.0282 -1.78184,4.7676 -2.84131,6.3568 -1.01132,1.5892 -1.68553,2.3116 -0.77052,0.7224 -1.20394,0.4816 -0.38527,-0.2408 -0.28895,-0.8187 0,-0.1445 0.86684,-4.3824 0.86684,-4.2379 1.05947,-8.1868 0.24079,-3.9971 0.0963,-11.22081 -0.14447,-7.27184 0.3371,-11.12447 0.28895,-2.21526 0.96316,-4.62316 0.67421,-2.40789 1.54105,-4.67131 0.915,-2.31158 1.87816,-4.38237 0.96316,-2.07079 1.78184,-3.66 0.67421,-1.01131 1.15579,-0.77052 0.48158,0.19263 0.43342,0.77052 -0.0963,0.33711 -0.24079,1.4929 -0.0963,1.10763 -0.24078,2.69684 -0.0963,1.54105 -0.19264,3.32289 -0.0963,1.78184 -0.19263,3.51553 -0.0482,1.68552 -0.0963,3.13026 -0.0482,1.44474 -0.0482,2.26342 z"
         style="font-style:normal;font-variant:normal;font-weight:normal;font-stretch:normal;font-family:IranNastaliq;-inkscape-font-specification:IranNastaliq"
         id="path4249" />
      <path
         d="m 859.07583,930.50238 q 0.43342,0.14447 -0.52973,2.40789 -0.19264,0.915 -1.01132,2.31158 -2.50421,4.2379 -9.72789,11.99132 -1.68553,1.58921 -3.27474,3.13026 -1.58921,1.54105 -3.0821,3.0821 0.57789,-1.68552 1.44473,-3.46736 0.62606,-1.25211 2.50421,-3.46737 5.34553,-5.77895 8.18684,-9.05369 3.80448,-4.52684 5.49,-6.93473 z m -35.82946,81.33862 q 0,-2.6486 -3.3229,-4.0934 -3.32289,-1.3966 -8.66842,-1.3966 -2.84131,0 -3.70815,0.4335 -2.93764,1.3002 -2.93764,5.9234 0,4.4305 2.31158,6.9347 1.92632,2.119 5.20105,2.119 5.05658,0 8.09053,-3.3229 3.03395,-3.3229 3.03395,-6.5977 z m 4.96026,-0.915 q -0.5779,0.1445 -1.44474,3.4674 -1.05947,3.6119 -1.34842,4.3824 -3.32289,8.9092 -5.00842,11.7024 -4.96026,7.6571 -12.42473,7.6571 -5.20106,0 -7.84974,-5.0566 -2.60052,-4.9603 -2.60052,-14.3029 0,-3.7563 1.44473,-13.2916 1.4929,-10.01683 2.60053,-16.2292 1.15579,-6.88658 2.1671,-12.08763 0.86684,-5.49 2.02263,-8.235 l 4.91211,-10.16131 q 0.28895,-0.43342 0.72237,-0.24079 0.28894,0.28895 0.19263,1.20395 -0.0482,0.915 -0.5779,3.85263 -0.0482,0.0963 -3.17842,21.23762 -0.915,5.87527 -1.44473,9.48711 -0.48158,3.61184 -0.62606,4.96026 1.05948,0 13.43605,-14.30289 18.54079,-21.43026 22.44158,-25.76447 4.76763,-5.34553 8.37947,-9.43895 3.61184,-4.14157 6.01974,-6.98289 10.01684,-11.895 16.2292,-21.86368 1.39658,-1.97447 1.58921,-1.83 0.24079,0.14447 0.0963,1.10763 -1.25211,4.52684 -1.39658,4.91211 -1.78184,4.9121 -5.34552,10.30578 -2.21527,3.90079 -6.64579,9.63158 -4.09342,5.39368 -11.895,14.49552 -0.24079,0.14448 -8.04237,8.8129 -2.50421,2.84131 -5.05658,5.77894 -2.50421,2.88948 -4.96026,5.92342 l -8.90921,10.35395 -8.09052,9.15 q 0.0963,0 0.14447,0.0482 0.0963,0.0481 0.24079,0.0481 l 10.83553,2.3116 q 1.05947,0.2889 2.11894,0.626 1.05948,0.289 2.11895,0.5298 4.71947,1.3484 6.35684,1.3484 1.68553,0 5.20105,-4.1897 1.87816,-2.31162 2.84132,-3.51557 0.48158,-0.24079 1.20395,-0.0963 0.86684,0.24079 1.10763,0.24079 l 1.20394,-0.14447 q 1.10764,-0.14447 1.73369,-1.10763 0.28895,-0.43342 0.57789,-0.86684 0.28895,-0.43342 0.67421,-0.86685 1.34842,-2.02263 2.02263,-2.1671 0.77053,0.14447 2.50421,0.57789 0.67421,-0.0481 2.69685,-2.64868 l 1.63736,-2.26342 q 0.67421,0 1.87816,0.67421 l 0.72237,-0.38526 0,0 q 1.39658,-0.86684 1.73368,-1.78184 0.38527,-1.10764 0.38527,-2.02264 0,-0.52973 -0.14448,-3.70815 l 0,-2.79316 q 1.20395,-3.32289 3.03395,-6.54947 1.87816,-3.22658 2.88947,-4.96026 0.0482,-0.28895 0.72237,-0.77053 0.28895,0 0.28895,2.79316 0,0.86684 0,1.78184 0,0.915 0,1.78184 0,2.60053 -0.38526,5.8271 -0.33711,3.90079 -3.08211,8.95737 -2.84131,5.05658 -5.44184,7.51263 l 0,0 q -0.77053,0.81869 -2.07079,1.73369 -0.67421,0.43342 -1.30026,0.86684 -0.5779,0.38526 -1.15579,0.72237 -2.16711,1.58921 -2.55237,1.87815 -0.86684,0.72237 -2.02263,1.30031 l -2.50421,1.1076 q -0.81868,0.626 -1.58921,1.2039 -0.72237,0.5298 -1.39658,1.1077 l -4.47868,2.5042 q -0.86685,0.5779 -2.88948,2.8413 -3.46736,3.66 -5.92342,3.66 -0.19263,0 -3.22657,-1.3003 -1.10764,-0.4334 -2.11895,-0.4334 l 0,-0.048 z m -14.59184,-67.32468 q 0,-0.86684 3.0821,-6.50131 3.08211,-5.68263 3.80448,-5.77895 1.15579,0 3.61184,2.11895 2.50421,2.07079 3.37105,3.94895 1.58921,-2.60053 3.03395,-5.05658 2.11894,-3.46737 2.60052,-3.46737 1.73369,0 4.43053,2.45605 2.60052,2.745 2.60052,5.05658 0,2.64869 -2.60052,6.64579 -2.69684,3.80447 -3.85263,3.80447 -0.915,0 -2.64869,-1.78184 -2.40789,-2.55237 -3.9971,-3.70816 -3.94895,8.09053 -6.21237,8.09053 -0.48158,0 -3.85263,-2.64869 -3.37105,-2.69684 -3.37105,-3.17842 z m 6.59763,-17.91473 q 0,-0.72237 2.64868,-6.35684 2.69684,-5.63447 3.56369,-5.73079 2.02263,0 4.47868,2.45605 2.45605,2.745 2.45605,5.29737 0,2.35974 -2.31158,6.54947 -2.26342,4.18974 -3.32289,4.18974 -0.67421,0 -2.93763,-1.97447 -2.21526,-1.97448 -3.41921,-2.84132 -1.15579,-0.86684 -1.15579,-1.58921 z m 37.12973,-12.66552 q 0,-1.58921 2.55237,-6.64579 2.55237,-5.05658 3.32289,-5.44184 1.54105,-0.67421 4.38237,2.40789 2.88947,3.03395 3.0821,4.76763 0,2.26342 -2.40789,6.59763 -2.40789,4.28605 -3.46737,4.28605 -0.43342,0 -2.84131,-1.63736 -2.4079,-1.68553 -3.61185,-2.64869 -1.01131,-0.86684 -1.01131,-1.68552 z"
         style="font-style:normal;font-variant:normal;font-weight:normal;font-stretch:normal;font-family:IranNastaliq;-inkscape-font-specification:IranNastaliq"
         id="path4251" />
      <path
         d="m 786.45381,1014.0082 q 0,3.1302 -1.05948,6.9828 -1.01131,3.8527 -2.69684,6.9829 -2.60053,4.9603 -5.34552,7.5608 -2.745,2.6006 -6.11606,2.6006 -5.34552,0 -5.34552,-6.5014 0,-2.2152 0.72237,-4.7676 0.915,-2.6487 2.26342,-4.9603 1.39658,-2.3115 2.35973,-3.9007 -0.96315,-0.289 -1.20394,-0.3371 -0.19263,-0.096 -0.33711,-0.096 -0.14447,-0.5779 0.96316,-3.1302 l 5.10474,-11.6061 q 0.72236,-1.83 1.68552,-1.83 0.72237,0 2.16711,0.915 1.49289,0.915 2.50421,1.6374 2.40789,2.1671 3.37105,4.1897 0.96316,2.0227 0.96316,6.2606 z m -6.9829,11.4134 q 0,-2.0708 -1.44473,-3.3711 -0.72237,-0.7223 -2.07079,-1.541 -1.34842,-0.8669 -2.21527,-1.0113 -0.62605,0 -2.26342,2.5523 -1.63736,2.5042 -1.63736,4.2379 0,3.2748 3.90078,3.2748 1.73369,0 3.70816,-1.2522 2.02263,-1.3002 2.02263,-2.8894 z"
         style="font-style:normal;font-variant:normal;font-weight:normal;font-stretch:normal;font-family:IranNastaliq;-inkscape-font-specification:IranNastaliq"
         id="path4253" />
      <path
         d="m 729.82009,1009.388 q -6.50132,0 -9.63158,-5.0566 -2.50421,-4.0934 -2.50421,-10.59471 0.19263,-1.49289 0.67421,-3.37105 0.43342,-1.92631 1.20395,-3.66 0.77052,-1.73368 1.83,-2.98579 1.05947,-1.2521 2.50421,-1.54105 0,5.49 1.30026,8.42763 0.915,1.97447 3.13026,2.84132 2.21527,0.86684 4.575,0.57789 1.01132,-2.69684 1.97448,-5.20105 0.14447,-0.28895 2.45605,-5.77895 1.78184,-3.85263 4.04526,-6.35684 3.37105,-3.70816 7.51263,-3.70816 1.92632,0 3.27474,0.72237 1.34842,0.67421 1.78184,2.26342 0.14447,1.4929 -0.86684,2.45606 -0.96316,0.915 -1.54106,0.915 -0.14447,0 -1.78184,-0.43343 -1.58921,-0.43342 -2.98579,-0.43342 -3.0821,0 -5.44184,2.745 -2.35973,2.745 -2.35973,4.76763 0,1.68553 1.54105,3.37106 1.58921,1.68552 4.23789,1.68552 3.41921,-0.14447 6.79026,-5.05658 0.72237,-1.15579 2.11895,-3.61184 1.44474,-2.45605 2.31158,-2.07079 0.77053,0.28895 -0.0482,2.64869 -0.81868,2.31158 -2.69684,6.16421 -2.69684,5.34552 -5.92342,9.82421 -7.75342,10.45025 -17.48131,10.45025 z"
         style="font-style:normal;font-variant:normal;font-weight:normal;font-stretch:normal;font-family:IranNastaliq;-inkscape-font-specification:IranNastaliq"
         id="path4255" />
      <path
         d="m 707.61931,1016.1783 q -0.28895,-0.5779 -0.5779,-1.1558 -0.14447,-1.0595 -0.57789,-3.3711 -0.38526,-1.1558 0.28895,-2.4079 0.72237,-1.1558 1.34842,-1.5892 l 3.27473,-2.6487 q 4.62316,-4.3342 6.0679,-10.97996 0.14447,-0.86684 0.77052,-4.575 0.28895,-2.35973 0.86685,-8.52394 0.24079,-2.79316 0.38526,-4.86395 0.19263,-2.07079 0.67421,-6.11605 0.52974,-4.04526 1.39658,-5.77895 l 1.87816,-3.80447 2.98578,-5.63447 q 0.5779,-0.28895 0.5779,0.86684 -0.14447,1.49289 -0.72237,3.80447 -0.67421,3.03395 -1.44474,10.25763 -0.96315,7.46447 -0.96315,12.71368 l -1.15579,14.15842 q -0.43342,2.55237 -0.5779,3.13026 -0.86684,3.08209 -2.50421,3.08209 -0.43342,0.9632 -1.01131,1.9745 -1.15579,1.7818 -3.56369,4.5268 -2.50421,2.745 -3.75631,3.9008 -2.35974,2.0227 -3.66,3.034 z"
         style="font-style:normal;font-variant:normal;font-weight:normal;font-stretch:normal;font-family:IranNastaliq;-inkscape-font-specification:IranNastaliq"
         id="path4257" />
      <path
         d="m 709.88273,1017.8608 q -2.50421,6.9829 -4.67131,10.3058 -2.16711,3.3229 -3.41921,4.1415 -1.20395,0.7706 -3.66,1.6856 -2.45605,0.915 -7.51263,2.5523 -5.00842,1.5893 -5.92342,1.5893 -0.57789,0 -0.57789,-0.289 -0.5779,-0.7705 5.97157,-5.1529 6.59763,-4.4305 8.47579,-5.7789 1.92632,-1.3966 3.90079,-4.0453 2.02263,-2.6487 2.93763,-5.9716 -0.52974,-0.048 -1.05947,0.096 -0.48158,0.1445 -1.01132,0.3371 -0.48158,0.1927 -1.01131,0.3853 -0.52974,0.1445 -1.01132,0.1445 -2.69684,-0.096 -4.52684,-1.7337 -1.78184,-1.6855 -1.4929,-3.7082 0.28895,-1.2039 0.81869,-2.8413 0.57789,-1.6373 2.31158,-5.1529 1.73368,-3.5636 3.46737,-5.87523 1.78184,-2.31158 3.51552,-2.31158 2.98579,0 4.96026,2.55237 1.97448,2.50424 1.97448,6.06794 0,1.7818 -0.24079,3.5636 -0.19263,1.7819 -0.43342,2.9858 -0.24079,1.1558 -0.72237,3.034 -0.48158,1.83 -1.05948,3.4192 z"
         style="font-style:normal;font-variant:normal;font-weight:normal;font-stretch:normal;font-family:IranNastaliq;-inkscape-font-specification:IranNastaliq"
         id="path4259" />
      <path
         d="m 645.64013,1032.886 q -2.45605,4.3343 -4.28605,12.5693 -1.83,8.235 -2.98579,20.0818 -1.15579,11.895 -1.54105,22.2971 -0.33711,10.4021 -0.62606,18.011 -0.28894,7.6571 -1.30026,6.3569 -0.72237,-0.8187 -0.72237,-2.8413 -0.0963,-6.9348 0.0963,-19.8892 0.24079,-12.9545 1.15579,-27.5464 0.96315,-14.5918 4.52684,-25.5718 1.05947,-2.9858 2.35973,-5.9234 2.69685,-5.6345 6.35685,-10.354 1.83,-2.2152 4.38236,-4.6713 2.55237,-2.456 4.62316,-3.8526 2.11895,-1.4447 3.75632,-2.3597 1.63736,-0.915 2.21526,-1.2521 l 4.09342,-8.2832 q 1.39658,-2.84131 2.40789,-3.56368 0.28895,-0.28895 3.27474,0.14447 3.03395,0.43342 6.35684,1.63737 3.37105,1.20395 3.41921,3.70814 -0.0963,1.6374 -0.48158,2.9858 -0.38526,1.3484 -1.49289,3.5637 -1.05948,2.2153 -2.69685,3.9971 -1.58921,1.7337 -3.0821,2.6005 -1.49289,0.8669 -4.04526,1.7337 -2.55237,0.8187 -5.73079,1.5411 -3.17842,0.7223 -6.64579,2.2152 -3.46737,1.4448 -7.22368,4.9603 -3.70816,3.5155 -6.16421,7.7052 z"
         style="font-style:normal;font-variant:normal;font-weight:normal;font-stretch:normal;font-family:IranNastaliq;-inkscape-font-specification:IranNastaliq"
         id="path4261" />
      <path
         d="m 629.74802,994.21526 q -3.61185,12.85814 -8.09053,15.12154 -6.26052,3.034 -7.6571,4.0453 -1.34842,1.0595 -1.78184,1.6374 -1.44474,2.0226 -2.84132,5.201 -2.35974,6.0679 -3.80447,9.3427 -2.4079,4.9602 -7.07921,7.0792 -2.26342,0.8668 -5.92342,1.4929 -3.85263,0.8186 -6.01974,0.8186 -1.87816,0.1927 -2.35973,-0.8668 -0.14448,-0.6742 1.44473,-1.83 0.5779,-0.4334 3.94895,-2.8895 0.38526,-0.3371 5.20105,-3.371 3.75632,-2.5524 3.56368,-2.4079 4.18974,-3.3229 5.77895,-5.2011 0.48158,-0.626 3.37105,-7.2237 2.98579,-6.5494 4.47869,-8.5239 1.54105,-2.0226 4.76763,-4.0934 1.2521,-0.6742 4.28605,-2.2634 2.64868,-1.30031 3.75631,-2.21531 1.01132,-0.86684 2.60053,-3.75631 1.58921,-2.84132 2.21526,-2.745 0.67421,0.19263 0.14448,2.64868 z m -23.40474,78.83444 q 0,-0.8668 2.88948,-6.5976 2.93763,-5.7308 3.61184,-5.7308 1.15579,0 3.51552,2.1189 2.4079,2.119 3.17842,3.949 1.54106,-2.5524 2.88948,-5.0084 2.02263,-3.5155 2.55236,-3.5155 1.63737,0 4.09343,2.456 2.55236,2.7932 2.55236,5.1047 0,2.6969 -2.55236,6.6458 -2.45606,3.8527 -3.61185,3.8527 -0.86684,0 -2.50421,-1.83 -2.31157,-2.5043 -3.85263,-3.66 -3.75631,8.0905 -5.92342,8.0905 -0.48158,0 -3.66,-2.6969 -3.17842,-2.6486 -3.17842,-3.1784 z m 6.79026,13.5324 q 0.0482,-0.7224 2.84132,-5.779 2.84132,-5.0084 3.51553,-4.9121 1.73368,0.1445 3.75631,2.6487 2.07079,2.5524 1.92632,4.864 -0.14448,2.5042 -2.35974,6.2123 -2.31158,3.5156 -3.17842,3.5156 -0.5779,-0.048 -1.39658,-1.0595 -1.05947,-1.1076 -2.11895,-2.119 -1.05947,-1.0113 -2.02263,-1.8781 -0.96316,-0.8669 -0.96316,-1.4929 z m -5.8271,-122.80262 q 0,-1.58921 2.55237,-6.64579 2.55237,-5.05658 3.32289,-5.44184 1.54106,-0.67421 4.38237,2.40789 2.88947,3.03395 3.08211,4.76763 0,2.26342 -2.4079,6.59763 -2.40789,4.28606 -3.46737,4.28606 -0.43342,0 -2.84131,-1.63737 -2.4079,-1.68553 -3.61184,-2.64869 -1.01132,-0.86684 -1.01132,-1.68552 z"
         style="font-style:normal;font-variant:normal;font-weight:normal;font-stretch:normal;font-family:IranNastaliq;-inkscape-font-specification:IranNastaliq"
         id="path4263" />
      <path
         d="m 550.52832,979.57828 q 0,2.60052 0.0482,3.85263 0,1.78184 0.81868,4.62315 0.86684,2.21527 2.88948,3.66 1.92631,1.44474 5.20105,1.44474 4.47868,0 7.07921,-2.45605 3.46736,-3.22658 4.67131,-3.75632 0.81869,-0.3371 1.83,-0.0963 1.05947,0.19263 2.21526,0.0963 1.30027,0 2.45606,-2.93763 1.15578,-2.98579 1.58921,-3.22658 0.43342,-0.24079 1.01131,-0.0963 1.68553,0.57789 2.31158,0.57789 1.25211,0 2.1671,-1.68552 0.38527,-0.5779 1.25211,-3.03395 0.72237,-2.07079 1.15579,-2.07079 0.57789,0 0.57789,1.30026 0,4.91211 -2.84131,9.53526 -2.93763,4.62316 -5.97158,4.62316 -1.97447,2.79316 -2.26342,3.08211 -1.92632,2.26342 -3.51553,2.26342 -1.58921,-0.28895 -2.64868,-0.28895 -1.05947,0 -2.26342,0.57789 -1.44474,0.5779 -5.49,5.92341 -4.04526,5.2492 -8.76473,5.2492 -5.10474,0 -7.51263,-4.5268 -2.21527,-4.4787 -2.21527,-11.07633 1.20395,-5.34553 2.64869,-8.66842 1.39658,-3.46737 2.745,-3.46737 0.28894,0 0.81868,0.5779 z m 3.17842,-56.82631 q 0,-0.81868 2.88947,-6.30868 2.88948,-5.49 3.56369,-5.58632 1.10763,0 3.41921,2.02263 2.31158,2.02263 3.13026,3.85263 1.49289,-2.50421 2.88947,-4.9121 1.97448,-3.37105 2.4079,-3.37105 1.63737,0 4.18973,2.40789 2.45606,2.64869 2.45606,4.91211 0,2.55236 -2.45606,6.405 -2.55236,3.70815 -3.61184,3.70815 -0.86684,0 -2.50421,-1.73368 -2.26342,-2.45605 -3.75631,-3.56368 -3.70816,7.80157 -5.82711,7.80157 -0.48158,0 -3.66,-2.55237 -3.13026,-2.60052 -3.13026,-3.0821 z m 6.16421,-17.385 q 0,-0.67421 2.50421,-6.11605 2.55237,-5.49 3.37105,-5.58631 1.87816,0 4.18974,2.35973 2.31158,2.69685 2.31158,5.1529 0,2.31158 -2.16711,6.35684 -2.11895,4.04526 -3.13026,4.04526 -0.62605,0 -2.745,-1.87816 -2.07079,-1.92631 -3.22658,-2.745 -1.10763,-0.86684 -1.10763,-1.58921 z"
         style="font-style:normal;font-variant:normal;font-weight:normal;font-stretch:normal;font-family:IranNastaliq;-inkscape-font-specification:IranNastaliq"
         id="path4265" />
      <path
         d="m 550.52835,980.10801 -1.34842,8.09053 q -0.67421,4.96026 -1.54105,7.94605 -0.72237,3.0821 -1.4929,3.0821 -0.57789,0 -1.83,2.11891 -2.35974,4.0453 -2.64868,5.3937 -1.05948,0.5298 -1.97448,0.5779 -0.915,0.096 -1.87815,-0.5779 l 1.83,-3.371 q 1.73368,-3.2748 2.60052,-5.00845 1.63737,-3.17842 1.92632,-4.9121 l 0.14447,-3.22658 0.43342,-7.65711 q 0.43342,-4.04526 1.30026,-8.09052 0.5779,-2.98579 1.39658,-6.21237 1.05948,-3.41921 1.73369,-5.34552 1.49289,-3.41921 3.61184,-6.93474 0.57789,-0.38526 0.915,-0.24079 0.28895,0.38526 -0.19263,1.97448 -1.10763,6.54947 -1.54106,9.43894 -1.44473,10.065 -1.44473,12.95447 z m 9.24631,-35.20341 q 3.27474,-3.51553 13.86947,-12.13579 4.76763,-3.66 9.43895,-7.46447 4.71947,-3.85263 9.4871,-7.70526 6.45316,-5.34553 13.00263,-11.41342 4.43053,-4.09342 11.70237,-11.26895 11.07631,-10.59473 11.07631,-10.88368 0,0.77053 -0.28895,1.34842 -0.43342,2.02263 -2.84131,6.16421 -2.02263,3.75632 -3.94895,6.21237 -2.45605,3.17842 -5.05658,6.11605 -3.75631,4.04526 -4.43052,4.71947 -1.87816,1.87816 -7.51263,6.93474 -3.03395,2.64868 -11.99131,10.30578 -4.96027,4.28606 -10.01685,8.18685 -2.98578,2.31157 -5.97157,4.57499 -2.93763,2.21527 -5.87526,4.38237 l -10.20948,7.99421 q -2.88947,2.31158 -4.18973,3.3229 -2.07079,1.54105 -2.21527,1.10763 1.05948,-3.27474 2.60053,-5.87527 1.49289,-2.74499 3.37105,-4.62315 z"
         style="font-style:normal;font-variant:normal;font-weight:normal;font-stretch:normal;font-family:IranNastaliq;-inkscape-font-specification:IranNastaliq"
         id="path4267" />
      <path
         d="m 544.36411,1028.1666 q 0,-1.204 -5.20106,-3.6119 -5.29736,-2.456 -5.29736,-5.9715 0,-2.5524 1.10763,-5.7308 1.15579,-3.2266 2.745,-6.1161 0.3371,-0.4816 0.915,-0.7224 0.62605,-0.2407 1.20394,-0.2407 0.62606,0 1.10764,0.2407 0.48157,0.2408 0.57789,0.7224 0,1.0113 1.63737,2.0226 1.63737,1.0114 3.27473,2.2153 1.68553,1.1558 2.4079,2.6968 0.72237,1.6374 0.72237,4.9122 0,4.7676 -1.25211,9.7278 -1.20395,4.864 -4.52684,11.9914 -5.29737,11.0763 -14.30289,17.6257 -3.3229,2.119 -6.50132,3.1785 -3.46736,1.1558 -7.46447,1.1558 -9.29447,0 -14.30289,-6.9348 -4.23789,-5.9234 -4.23789,-15.1697 0,-4.0934 1.73368,-10.7392 1.73368,-6.4532 3.61184,-11.1245 2.02263,-4.8639 3.46737,-8.1868 0.43342,-0.7706 1.20395,-2.4079 0.81868,-1.6374 2.07078,-4.2379 0.86685,-1.7819 1.39658,-2.9858 0.5779,-1.20396 1.15579,-2.21528 1.15579,-1.92631 1.73369,-1.87815 0.81868,0.14447 0.43342,1.68552 -0.38527,1.78184 -0.96316,3.08211 -5.10474,11.8468 -7.03105,16.5663 -3.41921,8.5721 -3.41921,13.2916 0,8.861 5.49,12.7137 4.04526,2.6487 10.49842,2.6487 11.55789,0 19.35947,-6.5014 6.64579,-5.5381 6.64579,-11.7023 z"
         style="font-style:normal;font-variant:normal;font-weight:normal;font-stretch:normal;font-family:IranNastaliq;-inkscape-font-specification:IranNastaliq"
         id="path4269" />
      <path
         d="m 488.83808,1017.8608 q -2.50421,6.9829 -4.67132,10.3058 -2.1671,3.3229 -3.41921,4.1415 -1.20394,0.7706 -3.66,1.6856 -2.45605,0.915 -7.51263,2.5523 -5.00842,1.5893 -5.92342,1.5893 -0.57789,0 -0.57789,-0.289 -0.5779,-0.7705 5.97158,-5.1529 6.59763,-4.4305 8.47578,-5.7789 1.92632,-1.3966 3.90079,-4.0453 2.02263,-2.6487 2.93763,-5.9716 -0.52973,-0.048 -1.05947,0.096 -0.48158,0.1445 -1.01132,0.3371 -0.48157,0.1927 -1.01131,0.3853 -0.52974,0.1445 -1.01132,0.1445 -2.69684,-0.096 -4.52684,-1.7337 -1.78184,-1.6855 -1.49289,-3.7082 0.28895,-1.2039 0.81868,-2.8413 0.5779,-1.6373 2.31158,-5.1529 1.73368,-3.5636 3.46737,-5.87523 1.78184,-2.31158 3.51552,-2.31158 2.98579,0 4.96027,2.55237 1.97447,2.50424 1.97447,6.06794 0,1.7818 -0.24079,3.5636 -0.19263,1.7819 -0.43342,2.9858 -0.24079,1.1558 -0.72237,3.034 -0.48158,1.83 -1.05947,3.4192 z"
         style="font-style:normal;font-variant:normal;font-weight:normal;font-stretch:normal;font-family:IranNastaliq;-inkscape-font-specification:IranNastaliq"
         id="path4271" />
      <path
         d="m 433.26383,1022.3395 q 2.1671,-0.5298 3.51553,-1.1558 1.2521,-0.4334 3.85263,-2.3116 4.38236,-3.1303 6.93473,-7.4645 -0.67421,-0.626 -2.84131,-1.3966 -2.16711,-0.8186 -3.17842,-0.8186 -2.35974,0 -4.33421,1.6373 -1.15579,0.8669 -2.64869,3.2748 l -5.44184,8.5721 q 1.54105,0.1444 4.14158,-0.3371 z m -14.30289,-7.8016 q 0,3.7563 2.45605,6.0679 2.1671,1.9263 4.62316,1.9263 l 7.22368,-11.4134 q 3.37105,-5.0566 5.49,-6.6458 1.92631,-1.5892 4.38237,-1.5892 1.58921,0 5.92342,1.3002 2.26342,0.7224 3.85263,0.7224 1.44473,0 2.745,-0.4334 1.20394,-0.4334 1.20394,0.8668 -0.14447,1.3003 -1.34842,3.9008 -1.30026,2.6005 -2.1671,2.8413 -0.96316,0.289 -1.68553,1.3003 -0.28895,0.2889 -1.44473,1.8782 l -6.50132,10.0168 q -4.04526,6.1642 -7.80158,9.0537 -5.05657,3.8045 -11.12447,3.8045 -2.93763,0 -4.76763,-0.6261 -1.78184,-0.5779 -3.32289,-2.1671 -2.45606,-2.0226 -3.37106,-5.1529 -0.43342,-1.3003 -1.10763,-2.9376 0,-1.7337 0.62606,-3.9971 0.57789,-2.2635 1.58921,-4.2379 0.96315,-1.9745 2.1671,-3.2748 1.20395,-1.3484 2.35974,-1.2039 z m 15.60315,-47.86895 q 0,-1.58921 2.55237,-6.64579 2.55237,-5.05657 3.32289,-5.44184 1.54106,-0.67421 4.38237,2.4079 2.88948,3.03394 3.08211,4.76763 0,2.26342 -2.4079,6.59763 -2.40789,4.28605 -3.46737,4.28605 -0.43342,0 -2.84131,-1.63737 -2.40789,-1.68552 -3.61184,-2.64868 -1.01132,-0.86684 -1.01132,-1.68553 z"
         style="font-style:normal;font-variant:normal;font-weight:normal;font-stretch:normal;font-family:IranNastaliq;-inkscape-font-specification:IranNastaliq"
         id="path4273" />
      <path
         d="m 408.7996,1033.0787 q -1.49289,1.8781 -2.60053,2.6968 -1.44473,1.0113 -2.93763,1.6374 -1.44473,0.5779 -3.22657,0.9631 -1.78185,0.4335 -3.51553,0.8669 l -4.76763,1.1558 q -2.88947,0.4816 -3.51553,0.1444 0,-1.0113 2.35974,-2.5523 2.1671,-1.3484 4.38237,-2.745 2.26342,-1.4448 4.52684,-2.7932 5.68263,-3.9971 8.52394,-7.4644 2.16711,-2.6487 3.37106,-4.6714 0.81868,-1.1558 2.40789,-3.9971 l 3.08211,-6.3568 q 1.10763,-2.2153 2.11894,-3.6119 0.915,-1.3484 1.73369,-1.3002 0.72236,0.3852 0.43342,1.4447 -0.81869,2.4079 -1.01132,3.1303 -1.15579,3.8045 -1.15579,5.3455 -0.43342,1.3003 -0.57789,1.6374 -1.73369,3.9008 -3.61184,7.3681 -0.5779,1.3966 -6.01974,9.1019 z"
         style="font-style:normal;font-variant:normal;font-weight:normal;font-stretch:normal;font-family:IranNastaliq;-inkscape-font-specification:IranNastaliq"
         id="path4275" />
      <path
         d="m 379.85675,1013.4303 q 0,4.7676 1.92632,7.1755 1.83,2.456 4.28605,2.456 0.43342,-0.096 1.44473,-3.5636 1.05948,-3.5156 1.78185,-4.2379 1.73368,-0.5298 2.84131,1.2039 1.15579,1.6855 1.30026,4.0453 0,5.4418 -2.31157,10.691 -3.27474,6.9348 -8.76474,6.9348 -3.0821,-0.1445 -5.15289,-2.5043 -2.07079,-2.4079 -2.79316,-6.2123 -0.77053,-3.8045 -0.77053,-6.9348 -0.0482,-1.3002 0.24079,-2.6968 0.28895,-1.4447 0.81869,-2.7932 0.48158,-1.3484 1.10763,-2.5042 0.62605,-1.2039 1.34842,-2.0708 0.67421,-0.8668 1.39658,-1.2521 0.72237,-0.3852 1.30026,-0.1926 l 0,2.4561 z"
         style="font-style:normal;font-variant:normal;font-weight:normal;font-stretch:normal;font-family:IranNastaliq;-inkscape-font-specification:IranNastaliq"
         id="path4277" />
      <path
         d="m 379.90494,1010.926 q -0.14448,2.6969 -0.5779,4.9603 -0.43342,2.2153 -1.20395,3.7563 -0.72237,1.5411 -1.83,2.3116 -1.10763,0.7705 -2.69684,0.5297 0.0963,-5.6344 1.20395,-15.6994 1.10763,-10.11319 3.37105,-22.29713 1.15579,-3.56368 4.67132,-12.52105 0.38526,-0.86684 0.77052,-0.72237 0.38527,0.14447 0.38527,0.72237 -0.19264,4.43052 -1.78185,16.85526 -1.58921,12.42472 -1.97447,17.04792 -0.3371,4.6231 -0.3371,5.0565 z"
         style="font-style:normal;font-variant:normal;font-weight:normal;font-stretch:normal;font-family:IranNastaliq;-inkscape-font-specification:IranNastaliq"
         id="path4279" />
      <path
         d="m 312.24309,1022.4839 q 6.21237,0 13.91763,-0.5779 7.70526,-0.5778 14.73631,-2.1189 7.03106,-1.5892 12.71369,-3.9489 5.73079,-2.4079 8.09052,-4.3824 2.4079,-1.9745 3.85263,-4.4305 1.44474,-2.4561 1.87816,-2.4561 0.57789,0 0.43342,1.6374 -0.28895,2.3116 -1.87816,6.2123 -2.07079,5.0085 -4.14157,7.9943 -2.07079,2.9376 -5.00842,5.0084 -4.18974,2.8413 -9.48711,5.201 -4.62316,1.8782 -10.11315,3.4192 -8.37948,2.1671 -16.56632,3.1303 -8.13868,0.9632 -15.79578,0.9632 -8.86105,0 -13.58053,-0.7224 -7.70526,-1.204 -10.98,-4.6232 -2.93763,-2.6487 -2.93763,-7.2237 0,-1.7818 0.48158,-5.1047 0.52974,-3.3229 1.20395,-6.6458 0.67421,-3.3229 1.01132,-4.3823 0.38526,-1.0595 1.10763,-1.0595 0.72237,0 0.915,1.3002 0.19263,1.2521 0.38526,3.9971 0.24079,2.745 4.18974,4.9603 7.75342,3.7082 25.57183,3.8526 z m -6.16421,-25.13838 q 0,-0.96315 2.93763,-6.35684 2.93764,-5.39368 3.66,-5.73078 1.20395,-0.48158 3.56369,1.78184 2.35973,2.26342 3.56368,3.9971 1.44474,-2.35973 3.17842,-5.29737 1.78184,-2.93763 2.4079,-2.98578 1.78184,0 4.28605,2.64868 2.50421,2.60052 2.64868,4.9121 0,2.745 -2.69684,6.50132 -2.60053,3.70811 -3.80447,3.70811 -0.81869,0 -2.93763,-2.07074 -2.07079,-2.11895 -3.66,-3.27474 -3.90079,7.84978 -6.21237,7.84978 -0.5779,0 -1.63737,-0.915 -1.01131,-0.8669 -3.17842,-2.60057 -2.11895,-1.73368 -2.11895,-2.16711 z"
         style="font-style:normal;font-variant:normal;font-weight:normal;font-stretch:normal;font-family:IranNastaliq;-inkscape-font-specification:IranNastaliq"
         id="path4281" />
      <path
         d="m 256.18729,1025.7105 q -1.05948,0.8187 -2.26342,0.7224 -1.20395,-0.096 -1.87816,-0.7224 2.69684,-5.6345 6.45315,-10.5947 3.75632,-5.0084 6.69395,-7.9461 2.745,-2.6005 4.43053,-3.4673 1.44473,-0.7224 1.58921,0.1444 0.19263,0.7706 -1.54106,4.0453 -1.58921,3.0821 -2.31157,5.1047 -0.5779,1.3003 -2.45606,2.4079 -1.92631,1.0113 -4.76763,4.2379 -2.745,3.4674 -3.94894,6.0679 z m -9.63158,66.3616 q 0,0.8187 1.01131,1.6855 1.20395,0.9632 3.61185,2.6005 2.40789,1.6856 2.84131,1.6856 1.05948,0 3.46737,-4.3342 2.40789,-4.2861 2.40789,-6.5495 -0.19263,-1.7337 -3.0821,-4.8158 -2.84132,-3.034 -4.38237,-2.3597 -0.77052,0.3852 -3.32289,5.4418 -2.55237,5.0566 -2.55237,6.6458 z"
         style="font-style:normal;font-variant:normal;font-weight:normal;font-stretch:normal;font-family:IranNastaliq;-inkscape-font-specification:IranNastaliq"
         id="path4283" />
      <path
         d="m 256.09101,1025.7105 q -2.35974,5.2011 -4.47869,11.4134 -1.30026,3.9971 -2.02263,3.9971 -0.77052,0 -0.77052,-1.0113 0.3371,-1.83 0.62605,-3.7563 l 0.72237,-5.5863 q 0.3371,-3.6118 -1.15579,-5.2011 -1.4929,-1.6373 -4.18974,-1.6373 -2.79316,0 -5.8271,4.3823 -3.03395,4.3343 -4.62316,6.0679 -1.54105,1.6856 -3.51553,2.745 -1.97447,1.0114 -4.67131,1.0114 -4.38237,0 -7.03105,-4.1416 -2.69684,-4.1416 -2.69684,-11.5098 0.38526,-2.6005 1.01131,-4.7676 0.62605,-2.1671 1.44474,-3.7081 0.77052,-1.5411 1.73368,-2.3598 0.96316,-0.8187 2.02263,-0.7224 0,5.6345 2.02263,9.0537 2.07079,3.3711 6.9829,3.3711 3.56368,0 5.63447,-1.3003 0.72237,-0.4334 3.56368,-3.2747 1.44474,-1.4929 2.93764,-2.9376 2.11894,-1.6856 4.28605,-1.6856 2.93763,0 5.20105,2.5524 1.44474,1.7818 1.87816,2.745 0.43342,0.915 0.67421,1.6374 0.24079,0.6742 0.38526,1.2521 0.14447,0.7223 0.0482,1.6855 -0.0482,0.9632 -0.19263,1.6855 z"
         style="font-style:normal;font-variant:normal;font-weight:normal;font-stretch:normal;font-family:IranNastaliq;-inkscape-font-specification:IranNastaliq"
         id="path4285" />
      <path
         d="m 212.5081,1033.0787 q -1.4929,1.8781 -2.60053,2.6968 -1.44474,1.0113 -2.93763,1.6374 -1.44474,0.5779 -3.22658,0.9631 -1.78184,0.4335 -3.51552,0.8669 l -4.76763,1.1558 q -2.88948,0.4816 -3.51553,0.1444 0,-1.0113 2.35974,-2.5523 2.1671,-1.3484 4.38236,-2.745 2.26342,-1.4448 4.52684,-2.7932 5.68264,-3.9971 8.52395,-7.4644 2.16711,-2.6487 3.37105,-4.6714 0.81869,-1.1558 2.4079,-3.9971 l 3.0821,-6.3568 q 1.10763,-2.2153 2.11895,-3.6119 0.915,-1.3484 1.73368,-1.3002 0.72237,0.3852 0.43342,1.4447 -0.81868,2.4079 -1.01131,3.1303 -1.15579,3.8045 -1.15579,5.3455 -0.43342,1.3003 -0.5779,1.6374 -1.73368,3.9008 -3.61184,7.3681 -0.57789,1.3966 -6.01973,9.1019 z"
         style="font-style:normal;font-variant:normal;font-weight:normal;font-stretch:normal;font-family:IranNastaliq;-inkscape-font-specification:IranNastaliq"
         id="path4287" />
      <path
         d="m 199.60179,983.04263 q -0.19264,5.24921 -0.28895,9.43895 -0.0482,4.14158 -0.38527,7.03105 -0.57789,6.21237 -2.40789,11.02817 -1.78184,4.7676 -2.84131,6.3568 -1.01132,1.5892 -1.68553,2.3116 -0.77053,0.7224 -1.20395,0.4816 -0.38526,-0.2408 -0.28895,-0.8187 0,-0.1445 0.86685,-4.3824 0.86684,-4.2379 1.05947,-8.1868 0.24079,-3.9971 0.0963,-11.2208 -0.14448,-7.27184 0.3371,-11.12447 0.28895,-2.21526 0.96316,-4.62315 0.67421,-2.4079 1.54105,-4.67132 0.915,-2.31158 1.87816,-4.38237 0.96316,-2.07079 1.78184,-3.66 0.67421,-1.01131 1.15579,-0.77052 0.48158,0.19263 0.43342,0.77052 -0.0963,0.33711 -0.24079,1.4929 -0.0963,1.10763 -0.24079,2.69684 -0.0963,1.54105 -0.19263,3.32289 -0.0963,1.78185 -0.19263,3.51553 -0.0482,1.68553 -0.0963,3.13026 -0.0481,1.44474 -0.0481,2.26342 z"
         style="font-style:normal;font-variant:normal;font-weight:normal;font-stretch:normal;font-family:IranNastaliq;-inkscape-font-specification:IranNastaliq"
         id="path4289" />
      <path
         d="m 155.24838,992.29196 q 2.16711,0.43342 3.85263,-2.55237 1.73369,-3.03395 2.35974,-2.64868 1.2521,0.48157 1.58921,0.62605 2.26342,0.81868 4.14158,-5.24921 0.3371,-0.43342 1.39658,0.0963 1.10763,0.52974 1.83,-0.52973 0.81868,-1.01132 1.63736,-3.13027 0.81869,-2.1671 1.05948,-2.1671 0.48158,-0.0482 0.62605,0.62605 0.14447,0.62605 -0.0482,1.4929 -0.57789,3.17842 -2.02263,6.405 -1.2521,2.98578 -3.03395,4.47868 -1.73368,1.54105 -3.27473,3.03395 -1.58921,1.58921 -2.88948,2.02263 -1.49289,0.57789 -2.79315,1.10763 -5.29737,5.5382 -6.93474,5.3937 -0.24079,-0.5779 -0.52974,-1.7337 -0.28894,-1.15579 -0.38526,-2.50421 -0.14447,-1.34842 0.0482,-2.69684 0.19263,-1.39658 0.86684,-2.50421 l 2.50421,0.43342 z m 6.26053,-44.59421 q 0,-0.86684 3.0821,-6.50131 3.08211,-5.68263 3.80447,-5.77895 1.15579,0 3.61185,2.11895 2.50421,2.07079 3.37105,3.94895 1.58921,-2.60053 3.03394,-5.05658 2.11895,-3.46737 2.60053,-3.46737 1.73368,0 4.43053,2.45605 2.60052,2.745 2.60052,5.05658 0,2.64869 -2.60052,6.64579 -2.69685,3.80447 -3.85264,3.80447 -0.915,0 -2.64868,-1.78184 -2.40789,-2.55237 -3.9971,-3.70816 -3.94895,8.09053 -6.21237,8.09053 -0.48158,0 -3.85263,-2.64868 -3.37105,-2.69685 -3.37105,-3.17843 z m 6.59763,-17.91473 q 0,-0.72237 2.64868,-6.35684 2.69684,-5.63447 3.56368,-5.73079 2.02264,0 4.47869,2.45605 2.45605,2.745 2.45605,5.29737 0,2.35974 -2.31158,6.54947 -2.26342,4.18974 -3.32289,4.18974 -0.67421,0 -2.93763,-1.97447 -2.21527,-1.97448 -3.41921,-2.84132 -1.15579,-0.86684 -1.15579,-1.58921 z"
         style="font-style:normal;font-variant:normal;font-weight:normal;font-stretch:normal;font-family:IranNastaliq;-inkscape-font-specification:IranNastaliq"
         id="path4291" />
      <path
         d="m 152.64784,1001.2975 q -0.52974,0.096 -1.10763,-0.1445 -0.52974,-0.2408 -1.05947,-0.5779 -1.20395,-0.77051 -2.02263,-1.0113 -3.51553,-0.72237 -6.9829,1.5892 -3.41921,2.2634 -6.06789,6.5976 -0.28895,0.3853 -0.96316,0.4816 -0.67421,0.096 -1.34842,0.048 -0.72237,-0.048 -1.30026,-0.2408 -0.5779,-0.1445 -0.67421,-0.289 2.60052,-4.1415 6.11605,-8.04233 3.51552,-3.90079 6.83842,-5.58631 3.32289,-1.68553 8.5721,-2.26342 l 0.81869,1.92631 q 0.3371,1.10763 0.3371,2.26342 0,1.30026 -0.3371,2.745 -0.72237,2.21523 -0.81869,2.50423 z m -32.02499,-39.92291 q 0,-0.96315 2.93763,-6.35684 2.93763,-5.39368 3.66,-5.73078 1.20394,-0.48158 3.56368,1.78184 2.35974,2.26342 3.56368,3.9971 1.44474,-2.35974 3.17843,-5.29737 1.78184,-2.93763 2.40789,-2.98579 1.78184,0 4.28605,2.64869 2.50421,2.60052 2.64868,4.9121 0,2.745 -2.69684,6.50132 -2.60052,3.70815 -3.80447,3.70815 -0.81868,0 -2.93763,-2.07078 -2.07079,-2.11895 -3.66,-3.27474 -3.90079,7.84973 -6.21237,7.84973 -0.57789,0 -1.63737,-0.915 -1.01131,-0.86684 -3.13026,-2.60052 -2.1671,-1.73368 -2.1671,-2.16711 z"
         style="font-style:normal;font-variant:normal;font-weight:normal;font-stretch:normal;font-family:IranNastaliq;-inkscape-font-specification:IranNastaliq"
         id="path4293" />
      <path
         d="m 138.10416,1028.1666 q 0,-1.204 -5.20106,-3.6119 -5.29736,-2.456 -5.29736,-5.9715 0,-2.5524 1.10763,-5.7308 1.15579,-3.2266 2.745,-6.1161 0.3371,-0.4816 0.915,-0.7224 0.62605,-0.2407 1.20395,-0.2407 0.62605,0 1.10763,0.2407 0.48158,0.2408 0.57789,0.7224 0,1.0113 1.63737,2.0226 1.63737,1.0114 3.27474,2.2153 1.68552,1.1558 2.40789,2.6968 0.72237,1.6374 0.72237,4.9122 0,4.7676 -1.25211,9.7278 -1.20394,4.864 -4.52684,11.9914 -5.29737,11.0763 -14.30289,17.6257 -3.32289,2.119 -6.50131,3.1785 -3.46737,1.1558 -7.46448,1.1558 -9.294469,0 -14.302889,-6.9348 -4.237894,-5.9234 -4.237894,-15.1697 0,-4.0934 1.733684,-10.7392 1.733684,-6.4532 3.611841,-11.1245 2.022631,-4.8639 3.467368,-8.1868 0.433421,-0.7706 1.20395,-2.4079 0.81868,-1.6374 2.07079,-4.2379 0.86684,-1.7819 1.39657,-2.9858 0.5779,-1.20396 1.15579,-2.21528 1.15579,-1.92631 1.73369,-1.87815 0.81868,0.14447 0.43342,1.68552 -0.38526,1.78184 -0.96316,3.08211 -5.10473,11.8468 -7.03105,16.5663 -3.41921,8.5721 -3.41921,13.2916 0,8.861 5.49,12.7137 4.04526,2.6487 10.49842,2.6487 11.55789,0 19.35947,-6.5014 6.64579,-5.5381 6.64579,-11.7023 z"
         style="font-style:normal;font-variant:normal;font-weight:normal;font-stretch:normal;font-family:IranNastaliq;-inkscape-font-specification:IranNastaliq"
         id="path4295" />
      <path
         d="m 77.088125,1028.311 q 3.130262,3.1303 3.130262,4.6232 0,1.3966 -0.433421,2.8413 -0.433421,1.3966 -1.203947,2.5042 -0.770526,1.1558 -1.878157,1.8782 -1.107632,0.7224 -2.407895,0.7224 -5.00842,0 -5.00842,-7.9461 0,-5.0084 5.586315,-18.4926 5.875262,-14.59187 9.149998,-13.9177 -1.829999,2.5524 -3.515525,5.9716 -1.685526,3.3711 -3.082105,6.8384 -1.348421,3.4674 -2.311579,6.6458 -0.914999,3.1303 -1.252105,5.2492 l 3.226579,3.0821 z"
         style="font-style:normal;font-variant:normal;font-weight:normal;font-stretch:normal;font-family:IranNastaliq;-inkscape-font-specification:IranNastaliq"
         id="path4297" />
      <path
         d="m 32.686566,1019.5945 q -1.58921,3.6118 -3.274736,6.7421 -1.637368,3.0821 -2.793157,4.0934 -1.733684,1.7337 -3.515526,2.6968 -1.781842,0.915 -3.130263,1.5892 -1.300262,0.6743 -3.708157,1.5411 -2.070789,0.8668 -4.189736,1.3966 -1.492894,0.3371 -1.926315,0 -0.3852633,-0.7224 0.288947,-1.4448 0.577895,-0.5297 1.444737,-1.1558 0.866842,-0.6742 7.127367,-4.8639 6.308683,-4.2379 11.076313,-11.7505 1.733684,-2.6969 2.600526,-2.6005 0.915,0.048 0.915,1.0594 -0.192631,1.1077 -0.915,2.6969 z m 9.872367,-27.54634 q 0.529737,-1.30027 1.974473,-0.33711 9.246314,5.53816 9.246314,14.78445 0,4.7677 -2.118947,11.2208 -2.50421,7.6571 -6.356841,11.5579 -1.059473,1.204 -4.815788,3.66 -3.708157,2.4561 -5.682631,3.4674 -1.974473,0.9631 -2.985789,0.9631 -0.433421,0 -0.433421,-0.3852 0,-0.5779 1.637368,-2.2153 4.623158,-4.575 8.909209,-9.776 4.526842,-5.8272 4.526842,-7.8498 0,-2.3116 -2.311579,-5.3937 -2.311578,-3.0821 -5.489999,-4.9602 -1.58921,-0.8669 -1.059473,-2.5042 0.04816,-0.289 4.960262,-12.23214 z"
         style="font-style:normal;font-variant:normal;font-weight:normal;font-stretch:normal;font-family:IranNastaliq;-inkscape-font-specification:IranNastaliq"
         id="path4299" />
      <path
         d="m -2.1315918,1013.4303 q 0,4.7676 1.92631543,7.1755 1.82999967,2.456 4.28605187,2.456 0.4334209,-0.096 1.4447365,-3.5636 1.0594735,-3.5156 1.7818418,-4.2379 1.7336839,-0.5298 2.8413152,1.2039 1.155789,1.6855 1.300263,4.0453 0,5.4418 -2.3115785,10.691 -3.2747363,6.9348 -8.76473524,6.9348 -3.08210466,-0.1445 -5.15289376,-2.5043 -2.0707891,-2.4079 -2.7931574,-6.2123 -0.7705261,-3.8045 -0.7705261,-6.9348 -0.048158,-1.3002 0.2407894,-2.6968 0.2889473,-1.4447 0.818684,-2.7932 0.4815789,-1.3484 1.1076314,-2.5042 0.6260525,-1.2039 1.3484208,-2.0708 0.6742104,-0.8668 1.3965787,-1.2521 0.7223683,-0.3852 1.3002629,-0.1926 l 0,2.4561 z"
         style="font-style:normal;font-variant:normal;font-weight:normal;font-stretch:normal;font-family:IranNastaliq;-inkscape-font-specification:IranNastaliq"
         id="path4301" />
      <path
         d="m -2.0834378,1010.926 q -0.1444736,2.6969 -0.5778946,4.9603 -0.433421,2.2153 -1.2039472,3.7563 -0.7223682,1.5411 -1.8299996,2.3116 -1.1076314,0.7705 -2.6968416,0.5297 0.096316,-5.6344 1.2039471,-15.6994 1.1076314,-10.11319 3.371052,-22.29713 1.1557893,-3.56368 4.67131494,-12.52105 0.38526306,-0.86684 0.77052616,-0.72237 0.3852631,0.14447 0.3852631,0.72237 -0.1926315,4.43052 -1.78184177,16.85526 -1.58921023,12.42472 -1.97447333,17.04792 -0.3371052,4.6231 -0.3371052,5.0565 z"
         style="font-style:normal;font-variant:normal;font-weight:normal;font-stretch:normal;font-family:IranNastaliq;-inkscape-font-specification:IranNastaliq"
         id="path4303" />
      <path
         d="m -29.870545,1006.7393 q 2.456052,-5.7789 3.130263,-7.27182 3.226578,-7.60894 3.226578,-10.35394 0,-0.915 -0.866842,-3.22658 -1.011315,-2.55237 -1.926315,-4.43053 -0.433421,-0.72237 -0.866842,-1.44473 -0.433421,-0.72237 -0.818684,-1.44474 -0.866842,-1.30026 -0.722368,-2.02263 0.67421,-2.02263 1.203947,-3.61184 0.481579,-1.58921 0.915,-2.745 1.926315,-5.77895 2.937631,-7.80158 2.456052,0.81868 4.76763,5.49 2.167105,4.71947 2.167105,9.63158 0,5.05657 -2.793157,12.71368 -1.685526,4.09342 -3.322894,8.28315 -1.589211,4.14158 -3.178421,8.23498 -0.240789,0.5298 -0.770526,0.7705 -0.577895,0.2408 -1.203947,0.2408 -0.674211,0 -1.203947,-0.2889 -0.529737,-0.2408 -0.674211,-0.7224 z m -1.781841,-65.44654 q 0,-1.58921 2.552367,-6.64579 2.552368,-5.05658 3.322895,-5.44184 1.541052,-0.67421 4.382367,2.40789 2.889473,3.03395 3.082105,4.76763 0,2.26342 -2.407894,6.59763 -2.407895,4.28605 -3.467368,4.28605 -0.433421,0 -2.841315,-1.63736 -2.407895,-1.68553 -3.611842,-2.64869 -1.011315,-0.86684 -1.011315,-1.68552 z"
         style="font-style:normal;font-variant:normal;font-weight:normal;font-stretch:normal;font-family:IranNastaliq;-inkscape-font-specification:IranNastaliq"
         id="path4305" />
      <path
         d="m -23.32106,1028.1666 q 0,-1.204 -5.201052,-3.6119 -5.297367,-2.456 -5.297367,-5.9715 0,-2.5524 1.107631,-5.7308 1.155789,-3.2266 2.744999,-6.1161 0.337106,-0.4816 0.915,-0.7224 0.626053,-0.2407 1.203947,-0.2407 0.626053,0 1.107632,0.2407 0.481579,0.2408 0.577894,0.7224 0,1.0113 1.637369,2.0226 1.637368,1.0114 3.274736,2.2153 1.685526,1.1558 2.407894,2.6968 0.722368,1.6374 0.722368,4.9122 0,4.7676 -1.252105,9.7278 -1.203947,4.864 -4.526841,11.9914 -5.297367,11.0763 -14.302892,17.6257 -3.322894,2.119 -6.501315,3.1785 -3.467367,1.1558 -7.464472,1.1558 -9.294472,0 -14.302892,-6.9348 -4.237894,-5.9234 -4.237894,-15.1697 0,-4.0934 1.733684,-10.7392 1.733684,-6.4532 3.611842,-11.1245 2.022631,-4.8639 3.467367,-8.1868 0.433421,-0.7706 1.203947,-2.4079 0.818684,-1.6374 2.07079,-4.2379 0.866841,-1.7819 1.396578,-2.9858 0.577895,-1.20396 1.155789,-2.21528 1.15579,-1.92631 1.733684,-1.87815 0.818684,0.14447 0.433421,1.68552 -0.385263,1.78184 -0.963157,3.08211 -5.104736,11.8468 -7.031052,16.5663 -3.41921,8.5721 -3.41921,13.2916 0,8.861 5.489999,12.7137 4.045263,2.6487 10.498419,2.6487 11.557893,0 19.35947,-6.5014 6.645789,-5.5381 6.645789,-11.7023 z"
         style="font-style:normal;font-variant:normal;font-weight:normal;font-stretch:normal;font-family:IranNastaliq;-inkscape-font-specification:IranNastaliq"
         id="path4307" />
      <path
         d="m -81.351317,997.49 q -0.192632,5.2492 -0.288947,9.4389 -0.04816,4.1416 -0.385263,7.0311 -0.577895,6.2124 -2.407895,11.0282 -1.781841,4.7676 -2.841315,6.3568 -1.011316,1.5892 -1.685526,2.3116 -0.770526,0.7223 -1.203947,0.4815 -0.385263,-0.2407 -0.288947,-0.8186 0,-0.1445 0.866842,-4.3824 0.866841,-4.2379 1.059473,-8.1868 0.240789,-3.9971 0.09632,-11.2208 -0.144474,-7.2719 0.337105,-11.1245 0.288947,-2.21526 0.963158,-4.62316 0.67421,-2.40789 1.541052,-4.67131 0.915,-2.31158 1.878158,-4.38237 0.963157,-2.07079 1.781841,-3.66 0.674211,-1.01132 1.15579,-0.77053 0.481578,0.19263 0.433421,0.77053 -0.09632,0.3371 -0.24079,1.49289 -0.09632,1.10764 -0.240789,2.69685 -0.09632,1.54105 -0.192632,3.32289 -0.09632,1.78184 -0.192631,3.51553 -0.04816,1.68552 -0.09632,3.13026 -0.04816,1.44473 -0.04816,2.26342 z"
         style="font-style:normal;font-variant:normal;font-weight:normal;font-stretch:normal;font-family:IranNastaliq;-inkscape-font-specification:IranNastaliq"
         id="path4309" />
      <path
         d="m -94.450263,993.34842 q -3.611841,12.85818 -8.090527,15.12158 -6.26052,3.0339 -7.6571,4.0453 -1.34842,1.0594 -1.78184,1.6373 -1.44474,2.0227 -2.84132,5.2011 -2.35973,6.0679 -3.80447,9.3426 -2.4079,4.9603 -7.07921,7.0792 -2.26342,0.8669 -5.92342,1.4929 -3.85263,0.8187 -6.01974,0.8187 -1.87815,0.1926 -2.35973,-0.8668 -0.14448,-0.6743 1.44473,-1.83 0.5779,-0.4335 2.45606,-1.83 1.87815,-1.3966 6.69394,-4.4306 3.75632,-2.5523 3.56369,-2.4079 4.18973,-3.0339 5.77894,-5.201 0.48158,-0.6261 3.37105,-7.2237 2.98579,-6.5495 4.47869,-8.5239 1.54105,-2.0227 4.76763,-4.0935 1.2521,-0.6742 4.28605,-2.26339 2.64868,-1.30026 3.756315,-2.21526 1.011316,-0.86684 2.600526,-3.75631 1.58921,-2.84132 2.215263,-2.745 0.67421,0.19263 0.144473,2.64868 z m -25.234727,84.85418 q 0,0.4334 2.11894,2.1671 2.16711,1.7337 3.17842,2.6005 1.05948,0.915 1.63737,0.915 2.31158,0 6.21237,-7.8497 1.58921,1.1558 3.66,3.2266 2.11894,2.1189 2.937628,2.1189 1.203948,0 3.804473,-3.7081 2.696842,-3.7563 2.696842,-6.5013 -0.144474,-2.3116 -2.648684,-4.9603 -2.50421,-2.6005 -4.286049,-2.6005 -0.62606,0.048 -2.4079,2.9858 -1.73368,2.9376 -3.17842,5.2973 -1.20394,-1.7337 -3.56368,-3.9971 -2.35974,-2.2634 -3.56368,-1.7818 -0.72237,0.3371 -3.66,5.7308 -2.93763,5.3937 -2.93763,6.3568 z"
         style="font-style:normal;font-variant:normal;font-weight:normal;font-stretch:normal;font-family:IranNastaliq;-inkscape-font-specification:IranNastaliq"
         id="path4311" />
      <path
         d="m -140.87446,997.49 q -0.19264,5.2492 -0.28895,9.4389 -0.0482,4.1416 -0.38526,7.0311 -0.5779,6.2124 -2.4079,11.0282 -1.78184,4.7676 -2.84131,6.3568 -1.01132,1.5892 -1.68553,2.3116 -0.77053,0.7223 -1.20395,0.4815 -0.38526,-0.2407 -0.28894,-0.8186 0,-0.1445 0.86684,-4.3824 0.86684,-4.2379 1.05947,-8.1868 0.24079,-3.9971 0.0963,-11.2208 -0.14448,-7.2719 0.3371,-11.1245 0.28895,-2.21526 0.96316,-4.62316 0.67421,-2.40789 1.54105,-4.67131 0.915,-2.31158 1.87816,-4.38237 0.96316,-2.07079 1.78184,-3.66 0.67421,-1.01132 1.15579,-0.77053 0.48158,0.19263 0.43342,0.77053 -0.0963,0.3371 -0.24079,1.49289 -0.0963,1.10764 -0.24079,2.69685 -0.0963,1.54105 -0.19263,3.32289 -0.0963,1.78184 -0.19263,3.51553 -0.0482,1.68552 -0.0963,3.13026 -0.0481,1.44473 -0.0481,2.26342 z"
         style="font-style:normal;font-variant:normal;font-weight:normal;font-stretch:normal;font-family:IranNastaliq;-inkscape-font-specification:IranNastaliq"
         id="path4313" />
      <path
         d="m -180.31577,1014.4897 q 0.28895,1.4448 -0.24079,3.1785 -0.48158,1.7336 -1.63737,3.9007 -1.10763,2.119 -2.98579,3.9008 -1.20394,1.1558 -1.92631,1.1558 -0.43342,0 -2.02263,-1.2521 -1.54105,-1.2521 -2.79316,-2.3116 -1.2521,-1.0594 -2.1671,-1.9263 -0.915,-0.8668 -0.915,-1.4447 0.96315,-1.9263 1.39657,-2.9376 1.44474,-3.2748 2.45606,-5.1529 1.05947,-1.8782 3.32289,-5.5382 1.30026,1.0595 3.17842,2.5524 1.92632,1.4929 2.98579,2.7931 1.05947,1.3003 1.34842,3.0821 z m 21.81552,-7.0792 q -1.30026,22.6824 -13.1471,39.0079 -11.70237,15.844 -28.1242,15.9884 -8.52395,-0.3852 -13.53237,-5.6344 -4.96026,-5.2011 -5.24921,-14.5437 -0.0482,-14.7363 9.67973,-31.9769 1.87816,-3.4673 2.21527,-2.2152 0.38526,1.2521 -0.0482,2.5523 -6.405,12.7137 -6.54947,21.96 0.28894,6.9348 4.9121,10.5466 4.67132,3.6119 12.32842,3.9008 9.39079,0 18.05921,-4.9603 8.62026,-5.7307 11.99131,-15.266 1.30026,-3.3229 1.30026,-8.8129 0,-2.0708 -0.0482,-5.2974 0,-3.2265 0,-4.575 0.28894,-3.9971 1.87815,-8.7647 1.58921,-4.81579 2.60053,-6.9829 1.05947,-2.1671 1.78184,-2.1671 0.52974,0 0.43342,1.10763 -0.0482,1.10763 -0.19263,4.28605 -0.14447,3.17842 -0.28895,11.84682 z"
         style="font-style:normal;font-variant:normal;font-weight:normal;font-stretch:normal;font-family:IranNastaliq;-inkscape-font-specification:IranNastaliq"
         id="path4315" />
    </g>
  </g>
</svg>
